<?xml version="1.0" standalone="no"?>
<!DOCTYPE svg PUBLIC "-//W3C//DTD SVG 1.1//EN"
 "http://www.w3.org/Graphics/SVG/1.1/DTD/svg11.dtd">
<svg width="1232px" height="964px" version="1.1"
 xmlns="http://www.w3.org/2000/svg" xmlns:xlink="http://www.w3.org/1999/xlink">
<ellipse cx="120.025658" cy="170.466720" rx="39.529715" ry="39.529715" stroke="red" stroke-width="1" fill="none" /> 
<ellipse cx="119.989112" cy="367.035567" rx="39.526681" ry="39.526681" stroke="red" stroke-width="1" fill="none" /> 
<ellipse cx="120.038638" cy="563.510321" rx="39.528586" ry="39.528586" stroke="red" stroke-width="1" fill="none" /> 
<ellipse cx="120.010224" cy="759.888804" rx="39.528563" ry="39.528563" stroke="red" stroke-width="1" fill="none" /> 
<ellipse cx="1101.990673" cy="170.467968" rx="39.533296" ry="39.533296" stroke="red" stroke-width="1" fill="none" /> 
<ellipse cx="1101.985903" cy="367.013141" rx="39.532793" ry="39.532793" stroke="red" stroke-width="1" fill="none" /> 
<ellipse cx="1101.993048" cy="563.498191" rx="39.530509" ry="39.530509" stroke="red" stroke-width="1" fill="none" /> 
<ellipse cx="1101.986307" cy="759.912308" rx="39.537393" ry="39.537393" stroke="red" stroke-width="1" fill="none" /> 
<path d="M 178.655630,858.107392 A38.786972,38.786972 0.000000 0,1 225.922476,819.770572" fill="none" stroke ="red" stroke-width="1" />
<ellipse transform="translate(218.188791 268.693334) rotate(85.459139)" rx="39.545397" ry="39.433620" stroke="red" fill="none" stroke-width="1" />
<ellipse cx="218.193457" cy="661.598275" rx="39.533716" ry="39.533716" stroke="red" stroke-width="1" fill="none" /> 
<path d="M 232.379862,821.320483 A39.523869,39.523869 0.000000 1,1 178.650088,858.744801" fill="none" stroke ="red" stroke-width="1" />
<ellipse transform="translate(218.196429 465.259453) rotate(-87.012636)" rx="39.544018" ry="39.428708" stroke="red" fill="none" stroke-width="1" />
<ellipse transform="translate(1003.819724 858.140895) rotate(-76.444278)" rx="39.522669" ry="39.460685" stroke="red" fill="none" stroke-width="1" />
<ellipse transform="translate(414.637096 858.146337) rotate(64.385269)" rx="39.527676" ry="39.465615" stroke="red" fill="none" stroke-width="1" />
<ellipse transform="translate(610.937560 858.138706) rotate(74.195384)" rx="39.501303" ry="39.473494" stroke="red" fill="none" stroke-width="1" />
<ellipse cx="807.386816" cy="858.153882" rx="39.524516" ry="39.524516" stroke="red" stroke-width="1" fill="none" /> 
<ellipse transform="translate(1003.820047 465.249319) rotate(-72.231453)" rx="39.541850" ry="39.450881" stroke="red" fill="none" stroke-width="1" />
<ellipse transform="translate(1003.807298 268.713132) rotate(-85.063826)" rx="39.536431" ry="39.459896" stroke="red" fill="none" stroke-width="1" />
<ellipse cx="1003.791168" cy="661.602325" rx="39.536796" ry="39.536796" stroke="red" stroke-width="1" fill="none" /> 
<ellipse cx="316.423950" cy="759.893575" rx="39.542683" ry="39.542683" stroke="red" stroke-width="1" fill="none" /> 
<ellipse transform="translate(414.618670 268.694311) rotate(76.395420)" rx="39.541062" ry="39.457637" stroke="red" fill="none" stroke-width="1" />
<ellipse transform="translate(414.622222 465.242193) rotate(-74.869365)" rx="39.536840" ry="39.458392" stroke="red" fill="none" stroke-width="1" />
<ellipse transform="translate(414.604061 661.604713) rotate(46.952579)" rx="39.502212" ry="39.480550" stroke="red" fill="none" stroke-width="1" />
<ellipse transform="translate(512.802991 170.471833) rotate(-77.812052)" rx="39.524618" ry="39.460255" stroke="red" fill="none" stroke-width="1" />
<ellipse transform="translate(512.795163 367.042474) rotate(-78.994290)" rx="39.530674" ry="39.465318" stroke="red" fill="none" stroke-width="1" />
<ellipse transform="translate(512.800335 563.512098) rotate(-67.336364)" rx="39.519760" ry="39.464470" stroke="red" fill="none" stroke-width="1" />
<ellipse cx="512.802585" cy="759.906958" rx="39.528215" ry="39.528215" stroke="red" stroke-width="1" fill="none" /> 
<ellipse transform="translate(316.420538 563.500744) rotate(78.598988)" rx="39.507297" ry="39.467009" stroke="red" fill="none" stroke-width="1" />
<ellipse transform="translate(316.425862 170.475208) rotate(-77.198500)" rx="39.517706" ry="39.451891" stroke="red" fill="none" stroke-width="1" />
<ellipse cx="316.431648" cy="367.007281" rx="39.540060" ry="39.540060" stroke="red" stroke-width="1" fill="none" /> 
<path d="M 894.570019,208.428924 A39.519039,39.519039 0.000000 1,1 898.061838,209.270430" fill="none" stroke ="red" stroke-width="1" />
<ellipse transform="translate(905.556547 563.509707) rotate(-79.410869)" rx="39.503749" ry="39.463674" stroke="red" fill="none" stroke-width="1" />
<ellipse transform="translate(807.373453 661.607287) rotate(-32.037544)" rx="39.486487" ry="39.478403" stroke="red" fill="none" stroke-width="1" />
<ellipse cx="905.558969" cy="759.922115" rx="39.533977" ry="39.533977" stroke="red" stroke-width="1" fill="none" /> 
<ellipse cx="807.390643" cy="268.725262" rx="39.525212" ry="39.525212" stroke="red" stroke-width="1" fill="none" /> 
<ellipse transform="translate(807.374537 465.231368) rotate(-54.480762)" rx="39.508161" ry="39.470769" stroke="red" fill="none" stroke-width="1" />
<ellipse transform="translate(709.191736 759.893118) rotate(45.213463)" rx="39.522052" ry="39.477432" stroke="red" fill="none" stroke-width="1" />
<ellipse cx="905.565413" cy="367.010345" rx="39.528144" ry="39.528144" stroke="red" stroke-width="1" fill="none" /> 
<ellipse cx="610.956329" cy="661.615820" rx="39.524537" ry="39.524537" stroke="red" stroke-width="1" fill="none" /> 
<ellipse cx="709.173792" cy="563.489729" rx="39.528248" ry="39.528248" stroke="red" stroke-width="1" fill="none" /> 
<ellipse transform="translate(709.173086 170.470969) rotate(-61.566054)" rx="39.506323" ry="39.478596" stroke="red" fill="none" stroke-width="1" />
<ellipse transform="translate(709.184681 366.987129) rotate(52.879578)" rx="39.536341" ry="39.473576" stroke="red" fill="none" stroke-width="1" />
<ellipse cx="610.985197" cy="465.254260" rx="39.521207" ry="39.521207" stroke="red" stroke-width="1" fill="none" /> 
<ellipse transform="translate(610.961456 268.709675) rotate(76.549909)" rx="39.517066" ry="39.467742" stroke="red" fill="none" stroke-width="1" />
<line x1="226.398594" y1="819.833622" x2="232.725889" y2="821.756836"  fill="none" stroke ="blue" stroke-width="1" />
<line x1="898.297798" y1="209.956442" x2="885.208536" y2="204.157935"  fill="none" stroke ="blue" stroke-width="1" />
</svg>
